<mxfile host="app.diagrams.net" modified="2022-01-13T03:53:13.493Z" agent="5.0 (Windows NT 10.0; Win64; x64) AppleWebKit/537.36 (KHTML, like Gecko) Chrome/97.0.4692.71 Safari/537.36" etag="lj9d_C1PmWTEpxy-bn6w" version="16.2.6" type="github">
  <diagram id="uC9RbGqV7Ba1gOXuNYqm" name="Page-1">
    <mxGraphModel dx="1422" dy="786" grid="1" gridSize="10" guides="1" tooltips="1" connect="1" arrows="1" fold="1" page="1" pageScale="1" pageWidth="827" pageHeight="1169" math="0" shadow="0">
      <root>
        <mxCell id="0" />
        <mxCell id="1" parent="0" />
        <mxCell id="FeLdUmC3BtQT5gLSNlq9-16" value="" style="edgeStyle=orthogonalEdgeStyle;rounded=0;orthogonalLoop=1;jettySize=auto;html=1;" edge="1" parent="1" source="FeLdUmC3BtQT5gLSNlq9-1">
          <mxGeometry relative="1" as="geometry">
            <mxPoint x="320" y="270" as="targetPoint" />
          </mxGeometry>
        </mxCell>
        <mxCell id="FeLdUmC3BtQT5gLSNlq9-1" value="CronJob&lt;br&gt;Papermill" style="rounded=0;whiteSpace=wrap;html=1;" vertex="1" parent="1">
          <mxGeometry x="70" y="120" width="120" height="60" as="geometry" />
        </mxCell>
        <mxCell id="FeLdUmC3BtQT5gLSNlq9-2" value="Github" style="rounded=0;whiteSpace=wrap;html=1;" vertex="1" parent="1">
          <mxGeometry x="409" y="120" width="110" height="60" as="geometry" />
        </mxCell>
        <mxCell id="FeLdUmC3BtQT5gLSNlq9-3" value="EC2&lt;br&gt;(Jupyter notebok)" style="rounded=0;whiteSpace=wrap;html=1;" vertex="1" parent="1">
          <mxGeometry x="260" y="270" width="120" height="60" as="geometry" />
        </mxCell>
        <mxCell id="FeLdUmC3BtQT5gLSNlq9-4" value="S3" style="rounded=0;whiteSpace=wrap;html=1;" vertex="1" parent="1">
          <mxGeometry x="20" y="270" width="120" height="60" as="geometry" />
        </mxCell>
        <mxCell id="FeLdUmC3BtQT5gLSNlq9-5" value="RDS&lt;br&gt;Banco de dados&lt;br&gt;(Postgres)" style="rounded=0;whiteSpace=wrap;html=1;" vertex="1" parent="1">
          <mxGeometry x="530" y="270" width="120" height="60" as="geometry" />
        </mxCell>
        <mxCell id="FeLdUmC3BtQT5gLSNlq9-6" value="" style="endArrow=none;dashed=1;html=1;rounded=0;" edge="1" parent="1">
          <mxGeometry width="50" height="50" relative="1" as="geometry">
            <mxPoint x="20" y="380" as="sourcePoint" />
            <mxPoint x="1100" y="380" as="targetPoint" />
          </mxGeometry>
        </mxCell>
        <mxCell id="FeLdUmC3BtQT5gLSNlq9-24" style="edgeStyle=orthogonalEdgeStyle;rounded=0;orthogonalLoop=1;jettySize=auto;html=1;entryX=0;entryY=0.5;entryDx=0;entryDy=0;" edge="1" parent="1" source="FeLdUmC3BtQT5gLSNlq9-8" target="FeLdUmC3BtQT5gLSNlq9-9">
          <mxGeometry relative="1" as="geometry" />
        </mxCell>
        <mxCell id="FeLdUmC3BtQT5gLSNlq9-8" value="Jupyter Notebook&lt;br&gt;(Deploy)" style="rounded=0;whiteSpace=wrap;html=1;" vertex="1" parent="1">
          <mxGeometry x="190" y="480" width="120" height="60" as="geometry" />
        </mxCell>
        <mxCell id="FeLdUmC3BtQT5gLSNlq9-26" style="edgeStyle=orthogonalEdgeStyle;rounded=0;orthogonalLoop=1;jettySize=auto;html=1;entryX=0.5;entryY=1;entryDx=0;entryDy=0;" edge="1" parent="1" source="FeLdUmC3BtQT5gLSNlq9-9" target="FeLdUmC3BtQT5gLSNlq9-2">
          <mxGeometry relative="1" as="geometry">
            <mxPoint x="464" y="190" as="targetPoint" />
          </mxGeometry>
        </mxCell>
        <mxCell id="FeLdUmC3BtQT5gLSNlq9-9" value="Github" style="rounded=0;whiteSpace=wrap;html=1;" vertex="1" parent="1">
          <mxGeometry x="404" y="480" width="120" height="60" as="geometry" />
        </mxCell>
        <mxCell id="FeLdUmC3BtQT5gLSNlq9-25" style="edgeStyle=orthogonalEdgeStyle;rounded=0;orthogonalLoop=1;jettySize=auto;html=1;entryX=1;entryY=0.5;entryDx=0;entryDy=0;" edge="1" parent="1" source="FeLdUmC3BtQT5gLSNlq9-10" target="FeLdUmC3BtQT5gLSNlq9-5">
          <mxGeometry relative="1" as="geometry" />
        </mxCell>
        <mxCell id="FeLdUmC3BtQT5gLSNlq9-10" value="Data viz&lt;br&gt;(metabase)" style="rounded=0;whiteSpace=wrap;html=1;" vertex="1" parent="1">
          <mxGeometry x="760" y="460" width="120" height="60" as="geometry" />
        </mxCell>
        <mxCell id="FeLdUmC3BtQT5gLSNlq9-13" value="" style="endArrow=classic;html=1;rounded=0;entryX=0;entryY=0.5;entryDx=0;entryDy=0;exitX=1;exitY=0.5;exitDx=0;exitDy=0;" edge="1" parent="1" source="FeLdUmC3BtQT5gLSNlq9-3" target="FeLdUmC3BtQT5gLSNlq9-5">
          <mxGeometry width="50" height="50" relative="1" as="geometry">
            <mxPoint x="390" y="380" as="sourcePoint" />
            <mxPoint x="440" y="330" as="targetPoint" />
            <Array as="points" />
          </mxGeometry>
        </mxCell>
        <mxCell id="FeLdUmC3BtQT5gLSNlq9-14" value="" style="endArrow=classic;html=1;rounded=0;entryX=0;entryY=0.5;entryDx=0;entryDy=0;" edge="1" parent="1" target="FeLdUmC3BtQT5gLSNlq9-3">
          <mxGeometry width="50" height="50" relative="1" as="geometry">
            <mxPoint x="140" y="299.5" as="sourcePoint" />
            <mxPoint x="250" y="299.5" as="targetPoint" />
            <Array as="points" />
          </mxGeometry>
        </mxCell>
        <mxCell id="FeLdUmC3BtQT5gLSNlq9-18" value="" style="endArrow=none;html=1;rounded=0;entryX=0;entryY=0.5;entryDx=0;entryDy=0;" edge="1" parent="1" target="FeLdUmC3BtQT5gLSNlq9-2">
          <mxGeometry width="50" height="50" relative="1" as="geometry">
            <mxPoint x="320" y="150" as="sourcePoint" />
            <mxPoint x="410" y="150" as="targetPoint" />
          </mxGeometry>
        </mxCell>
        <mxCell id="FeLdUmC3BtQT5gLSNlq9-28" value="&lt;font style=&quot;font-size: 21px&quot;&gt;AWS&lt;/font&gt;" style="text;html=1;strokeColor=none;fillColor=none;align=center;verticalAlign=middle;whiteSpace=wrap;rounded=0;" vertex="1" parent="1">
          <mxGeometry x="960" y="280" width="140" height="60" as="geometry" />
        </mxCell>
        <mxCell id="FeLdUmC3BtQT5gLSNlq9-29" value="&lt;font style=&quot;font-size: 21px&quot;&gt;Local&lt;/font&gt;" style="text;html=1;strokeColor=none;fillColor=none;align=center;verticalAlign=middle;whiteSpace=wrap;rounded=0;" vertex="1" parent="1">
          <mxGeometry x="960" y="430" width="140" height="60" as="geometry" />
        </mxCell>
      </root>
    </mxGraphModel>
  </diagram>
</mxfile>
